<svg id="Capa_1" enable-background="new 0 0 512.022 512.022" height="512" viewBox="0 0 512.022 512.022" width="512" xmlns="http://www.w3.org/2000/svg"><g><g id="Photos_4_"><g><path d="m256.011 331.011c-5.464 0-10.503-2.974-13.14-7.764l-19.204-34.893-34.893-19.204c-4.79-2.637-7.764-7.676-7.764-13.14s2.974-10.503 7.764-13.14l34.893-19.204 19.204-34.893c5.273-9.58 21.006-9.58 26.279 0l19.204 34.893 34.893 19.204c4.79 2.637 7.764 7.676 7.764 13.14s-2.974 10.503-7.764 13.14l-34.893 19.204-19.204 34.893c-2.636 4.791-7.675 7.764-13.139 7.764z" fill="#fff5f5"/></g></g><g><g id="Photos_1_"><g><path d="m256.011 331.011c-5.464 0-10.503-2.974-13.14-7.764l-19.204-34.893-34.893-19.204c-4.79-2.637-7.764-7.676-7.764-13.14s2.974-10.503 7.764-13.14l34.893-19.204 19.204-34.893c5.273-9.58 21.006-9.58 26.279 0l19.204 34.893 34.893 19.204c4.79 2.637 7.764 7.676 7.764 13.14s-2.974 10.503-7.764 13.14l-34.893 19.204-19.204 34.893c-2.636 4.791-7.675 7.764-13.139 7.764z" fill="#fff5f5"/></g></g><path d="m269.151 323.248 19.204-34.893 34.893-19.204c4.79-2.637 7.764-7.676 7.764-13.14s-2.974-10.503-7.764-13.14l-34.893-19.204-19.204-34.893c-2.637-4.79-7.888-7.185-13.14-7.185v149.421c5.464.001 10.503-2.972 13.14-7.762z" fill="#e3e7ea"/><g><path d="m391.011 136.011v120c0 8.401-6.599 15-15 15h-60c-2.401 0-5.099-.601-7.2-1.8l-38.701-21.301c-1.199-.899-2.399-1.5-3.3-2.699l26.502-91.956 93.198-27.743c3.002 2.699 4.501 6.599 4.501 10.499z" fill="#f03800"/><path d="m386.51 125.512-119.7 119.7c-1.199-.901-1.8-2.1-2.699-3.3l-8.101-14.702-13.2-24c-1.199-2.1-1.8-4.799-1.8-7.2v-181c0-6 3.6-11.4 9.3-13.801 1.8-.899 3.6-1.199 5.7-1.199 3.9 0 7.5 1.5 10.499 4.501z" fill="#ff641a"/></g><g><g><g><path d="m386.51 386.51c-2.699 3.001-6.599 4.501-10.499 4.501h-120c-8.401 0-15-6.599-15-15v-60c0-2.401.601-5.099 1.8-7.2l21.301-38.701c.899-1.199 1.5-2.399 2.699-3.3l93.024 30.738z" fill="#4175df"/></g></g><path d="m245.212 266.811-28.692 107.042-91.007 12.657c-3.001-2.699-4.501-6.599-4.501-10.499v-120c0-8.401 6.599-15 15-15h60c2.401 0 5.099.601 7.2 1.8l38.701 21.301c1.198.899 2.398 1.499 3.299 2.699z" fill="#00a66c"/><path d="m245.212 245.212c-.901 1.199-2.1 1.8-3.3 2.699l-38.701 21.301c-2.1 1.199-4.799 1.8-7.2 1.8h-181c-6 0-11.4-3.6-13.801-9.3-2.399-5.7-1.199-12.001 3.301-16.199l121-120 79.771 39.825z" fill="#fdd929"/><path d="m256.011 227.211-8.101 14.702c-.899 1.199-1.5 2.399-2.699 3.3l-119.7-119.7c2.699-3.001 6.599-4.501 10.499-4.501h105v75c0 2.401.601 5.099 1.8 7.2z" fill="#fdbf00"/></g><path d="m271.011 316.011v181c0 6-3.6 11.4-9.3 13.801-1.8.899-3.9 1.199-5.7 1.199-3.9 0-7.8-1.5-10.499-4.501l-120-121 119.7-119.7c1.199.901 1.8 2.1 2.699 3.3l21.301 38.701c1.199 2.101 1.799 4.8 1.799 7.2z" fill="#59c36a"/><path d="m507.51 266.51-121 120-119.7-119.7c.901-1.199 2.1-1.8 3.3-2.699l38.701-21.301c2.1-1.199 4.799-1.8 7.2-1.8h181c6 0 11.4 3.6 13.801 9.3 2.399 5.701 1.199 12.002-3.302 16.2z" fill="#4086f4"/></g></g></svg>